<mxfile host="app.diagrams.net" modified="2023-09-27T19:54:56.208Z" agent="Mozilla/5.0 (Macintosh; Intel Mac OS X 10_15_7) AppleWebKit/537.36 (KHTML, like Gecko) Chrome/116.0.0.0 Safari/537.36" etag="RI0qLB8aomDQgYqyNCfB" version="21.1.5" type="github">
  <diagram id="C5RBs43oDa-KdzZeNtuy" name="Page-1">
    <mxGraphModel dx="1434" dy="749" grid="1" gridSize="10" guides="1" tooltips="1" connect="1" arrows="1" fold="1" page="1" pageScale="1" pageWidth="827" pageHeight="1169" math="0" shadow="0">
      <root>
        <mxCell id="WIyWlLk6GJQsqaUBKTNV-0" />
        <mxCell id="WIyWlLk6GJQsqaUBKTNV-1" parent="WIyWlLk6GJQsqaUBKTNV-0" />
        <mxCell id="HdJTnQoszHruhpzJ2h9A-5" value="MobileAPP" style="edgeStyle=orthogonalEdgeStyle;rounded=0;orthogonalLoop=1;jettySize=auto;html=1;entryX=0.5;entryY=0;entryDx=0;entryDy=0;entryPerimeter=0;" edge="1" parent="WIyWlLk6GJQsqaUBKTNV-1" source="HdJTnQoszHruhpzJ2h9A-1" target="HdJTnQoszHruhpzJ2h9A-15">
          <mxGeometry relative="1" as="geometry">
            <mxPoint x="290" y="161" as="targetPoint" />
          </mxGeometry>
        </mxCell>
        <mxCell id="HdJTnQoszHruhpzJ2h9A-1" value="&lt;font style=&quot;font-size: 48px;&quot;&gt;1&lt;/font&gt;" style="ellipse;whiteSpace=wrap;html=1;aspect=fixed;fillColor=#dae8fc;strokeColor=#6c8ebf;" vertex="1" parent="WIyWlLk6GJQsqaUBKTNV-1">
          <mxGeometry x="40" y="111" width="80" height="80" as="geometry" />
        </mxCell>
        <mxCell id="HdJTnQoszHruhpzJ2h9A-4" value="WebApp" style="edgeStyle=orthogonalEdgeStyle;rounded=0;orthogonalLoop=1;jettySize=auto;html=1;" edge="1" parent="WIyWlLk6GJQsqaUBKTNV-1" source="HdJTnQoszHruhpzJ2h9A-2" target="HdJTnQoszHruhpzJ2h9A-38">
          <mxGeometry relative="1" as="geometry">
            <mxPoint x="230" y="351" as="targetPoint" />
          </mxGeometry>
        </mxCell>
        <mxCell id="HdJTnQoszHruhpzJ2h9A-2" value="&lt;font style=&quot;font-size: 48px;&quot;&gt;2&lt;/font&gt;" style="ellipse;whiteSpace=wrap;html=1;aspect=fixed;fillColor=#d5e8d4;strokeColor=#82b366;" vertex="1" parent="WIyWlLk6GJQsqaUBKTNV-1">
          <mxGeometry x="40" y="241" width="80" height="80" as="geometry" />
        </mxCell>
        <mxCell id="HdJTnQoszHruhpzJ2h9A-22" style="edgeStyle=orthogonalEdgeStyle;rounded=0;orthogonalLoop=1;jettySize=auto;html=1;entryX=0.5;entryY=0;entryDx=0;entryDy=0;" edge="1" parent="WIyWlLk6GJQsqaUBKTNV-1" source="HdJTnQoszHruhpzJ2h9A-15" target="HdJTnQoszHruhpzJ2h9A-38">
          <mxGeometry relative="1" as="geometry">
            <mxPoint x="430" y="191" as="targetPoint" />
          </mxGeometry>
        </mxCell>
        <mxCell id="HdJTnQoszHruhpzJ2h9A-15" value="MongoDB" style="shape=cylinder3;whiteSpace=wrap;html=1;boundedLbl=1;backgroundOutline=1;size=15;" vertex="1" parent="WIyWlLk6GJQsqaUBKTNV-1">
          <mxGeometry x="260" y="181" width="60" height="80" as="geometry" />
        </mxCell>
        <mxCell id="HdJTnQoszHruhpzJ2h9A-62" style="edgeStyle=orthogonalEdgeStyle;rounded=0;orthogonalLoop=1;jettySize=auto;html=1;entryX=0;entryY=0.5;entryDx=0;entryDy=0;" edge="1" parent="WIyWlLk6GJQsqaUBKTNV-1" source="HdJTnQoszHruhpzJ2h9A-17" target="HdJTnQoszHruhpzJ2h9A-59">
          <mxGeometry relative="1" as="geometry" />
        </mxCell>
        <mxCell id="HdJTnQoszHruhpzJ2h9A-63" value="LOG" style="edgeLabel;html=1;align=center;verticalAlign=middle;resizable=0;points=[];" vertex="1" connectable="0" parent="HdJTnQoszHruhpzJ2h9A-62">
          <mxGeometry x="-0.707" y="3" relative="1" as="geometry">
            <mxPoint as="offset" />
          </mxGeometry>
        </mxCell>
        <mxCell id="HdJTnQoszHruhpzJ2h9A-17" value="KEYCLOAK &lt;br&gt;SSO" style="shape=parallelogram;perimeter=parallelogramPerimeter;whiteSpace=wrap;html=1;fixedSize=1;" vertex="1" parent="WIyWlLk6GJQsqaUBKTNV-1">
          <mxGeometry x="360" y="291" width="120" height="60" as="geometry" />
        </mxCell>
        <mxCell id="HdJTnQoszHruhpzJ2h9A-21" value="&lt;h1&gt;MobileApp&lt;/h1&gt;&lt;p&gt;Her MobileApp kendi MongoDb veritabanını oluşturarak register olur. Ancak keycloak üzerinden account eşleşmediği için main server&#39;a bağlanamaz&lt;/p&gt;" style="text;html=1;strokeColor=none;fillColor=none;spacing=5;spacingTop=-20;whiteSpace=wrap;overflow=hidden;rounded=0;" vertex="1" parent="WIyWlLk6GJQsqaUBKTNV-1">
          <mxGeometry x="130" y="40" width="390" height="100" as="geometry" />
        </mxCell>
        <mxCell id="HdJTnQoszHruhpzJ2h9A-42" style="edgeStyle=orthogonalEdgeStyle;rounded=0;orthogonalLoop=1;jettySize=auto;html=1;entryX=0.25;entryY=1;entryDx=0;entryDy=0;exitX=0.25;exitY=0;exitDx=0;exitDy=0;" edge="1" parent="WIyWlLk6GJQsqaUBKTNV-1" source="HdJTnQoszHruhpzJ2h9A-24" target="HdJTnQoszHruhpzJ2h9A-17">
          <mxGeometry relative="1" as="geometry">
            <Array as="points">
              <mxPoint x="335" y="391" />
              <mxPoint x="390" y="391" />
            </Array>
          </mxGeometry>
        </mxCell>
        <mxCell id="HdJTnQoszHruhpzJ2h9A-46" value="SSO" style="edgeLabel;html=1;align=center;verticalAlign=middle;resizable=0;points=[];" vertex="1" connectable="0" parent="HdJTnQoszHruhpzJ2h9A-42">
          <mxGeometry x="-0.1818" y="-1" relative="1" as="geometry">
            <mxPoint x="-1" y="-1" as="offset" />
          </mxGeometry>
        </mxCell>
        <mxCell id="HdJTnQoszHruhpzJ2h9A-87" style="edgeStyle=orthogonalEdgeStyle;rounded=0;orthogonalLoop=1;jettySize=auto;html=1;" edge="1" parent="WIyWlLk6GJQsqaUBKTNV-1" source="HdJTnQoszHruhpzJ2h9A-24" target="HdJTnQoszHruhpzJ2h9A-83">
          <mxGeometry relative="1" as="geometry">
            <Array as="points">
              <mxPoint x="400" y="445" />
            </Array>
          </mxGeometry>
        </mxCell>
        <mxCell id="HdJTnQoszHruhpzJ2h9A-93" style="edgeStyle=orthogonalEdgeStyle;rounded=0;orthogonalLoop=1;jettySize=auto;html=1;entryX=0.5;entryY=1;entryDx=0;entryDy=0;" edge="1" parent="WIyWlLk6GJQsqaUBKTNV-1" source="HdJTnQoszHruhpzJ2h9A-24" target="HdJTnQoszHruhpzJ2h9A-38">
          <mxGeometry relative="1" as="geometry">
            <mxPoint x="230" y="400" as="targetPoint" />
          </mxGeometry>
        </mxCell>
        <mxCell id="HdJTnQoszHruhpzJ2h9A-94" value="GET" style="edgeLabel;html=1;align=center;verticalAlign=middle;resizable=0;points=[];" vertex="1" connectable="0" parent="HdJTnQoszHruhpzJ2h9A-93">
          <mxGeometry x="-0.0678" relative="1" as="geometry">
            <mxPoint as="offset" />
          </mxGeometry>
        </mxCell>
        <mxCell id="HdJTnQoszHruhpzJ2h9A-95" style="edgeStyle=orthogonalEdgeStyle;rounded=0;orthogonalLoop=1;jettySize=auto;html=1;exitX=0.25;exitY=1;exitDx=0;exitDy=0;entryX=1;entryY=0;entryDx=0;entryDy=42.5;entryPerimeter=0;" edge="1" parent="WIyWlLk6GJQsqaUBKTNV-1" source="HdJTnQoszHruhpzJ2h9A-24" target="HdJTnQoszHruhpzJ2h9A-29">
          <mxGeometry relative="1" as="geometry" />
        </mxCell>
        <mxCell id="HdJTnQoszHruhpzJ2h9A-96" style="edgeStyle=orthogonalEdgeStyle;rounded=0;orthogonalLoop=1;jettySize=auto;html=1;exitX=0.75;exitY=1;exitDx=0;exitDy=0;entryX=1;entryY=0;entryDx=0;entryDy=97.5;entryPerimeter=0;" edge="1" parent="WIyWlLk6GJQsqaUBKTNV-1" source="HdJTnQoszHruhpzJ2h9A-24" target="HdJTnQoszHruhpzJ2h9A-29">
          <mxGeometry relative="1" as="geometry" />
        </mxCell>
        <mxCell id="HdJTnQoszHruhpzJ2h9A-99" style="edgeStyle=orthogonalEdgeStyle;rounded=0;orthogonalLoop=1;jettySize=auto;html=1;exitX=0.5;exitY=0;exitDx=0;exitDy=0;entryX=0;entryY=0.5;entryDx=0;entryDy=0;" edge="1" parent="WIyWlLk6GJQsqaUBKTNV-1" source="HdJTnQoszHruhpzJ2h9A-24" target="HdJTnQoszHruhpzJ2h9A-82">
          <mxGeometry relative="1" as="geometry" />
        </mxCell>
        <mxCell id="HdJTnQoszHruhpzJ2h9A-100" style="edgeStyle=orthogonalEdgeStyle;rounded=0;orthogonalLoop=1;jettySize=auto;html=1;exitX=0.75;exitY=0;exitDx=0;exitDy=0;entryX=0;entryY=0.5;entryDx=0;entryDy=0;" edge="1" parent="WIyWlLk6GJQsqaUBKTNV-1" source="HdJTnQoszHruhpzJ2h9A-24" target="HdJTnQoszHruhpzJ2h9A-84">
          <mxGeometry relative="1" as="geometry">
            <Array as="points">
              <mxPoint x="420" y="511" />
              <mxPoint x="420" y="475" />
            </Array>
          </mxGeometry>
        </mxCell>
        <mxCell id="HdJTnQoszHruhpzJ2h9A-101" style="edgeStyle=orthogonalEdgeStyle;rounded=0;orthogonalLoop=1;jettySize=auto;html=1;exitX=1;exitY=0.5;exitDx=0;exitDy=0;entryX=0.5;entryY=0;entryDx=0;entryDy=0;shape=link;" edge="1" parent="WIyWlLk6GJQsqaUBKTNV-1" source="HdJTnQoszHruhpzJ2h9A-24" target="HdJTnQoszHruhpzJ2h9A-69">
          <mxGeometry relative="1" as="geometry" />
        </mxCell>
        <mxCell id="HdJTnQoszHruhpzJ2h9A-24" value="LAMBDA" style="rounded=1;whiteSpace=wrap;html=1;" vertex="1" parent="WIyWlLk6GJQsqaUBKTNV-1">
          <mxGeometry x="290" y="511" width="180" height="130" as="geometry" />
        </mxCell>
        <mxCell id="HdJTnQoszHruhpzJ2h9A-29" value="ORACLE" style="shape=cylinder3;whiteSpace=wrap;html=1;boundedLbl=1;backgroundOutline=1;size=15;" vertex="1" parent="WIyWlLk6GJQsqaUBKTNV-1">
          <mxGeometry x="30" y="580" width="80" height="140" as="geometry" />
        </mxCell>
        <mxCell id="HdJTnQoszHruhpzJ2h9A-39" value="Token yok" style="edgeStyle=orthogonalEdgeStyle;rounded=0;orthogonalLoop=1;jettySize=auto;html=1;entryX=0;entryY=0.5;entryDx=0;entryDy=0;" edge="1" parent="WIyWlLk6GJQsqaUBKTNV-1" source="HdJTnQoszHruhpzJ2h9A-38" target="HdJTnQoszHruhpzJ2h9A-17">
          <mxGeometry relative="1" as="geometry" />
        </mxCell>
        <mxCell id="HdJTnQoszHruhpzJ2h9A-79" style="edgeStyle=orthogonalEdgeStyle;rounded=0;orthogonalLoop=1;jettySize=auto;html=1;exitX=0.5;exitY=1;exitDx=0;exitDy=0;entryX=0;entryY=0.25;entryDx=0;entryDy=0;" edge="1" parent="WIyWlLk6GJQsqaUBKTNV-1" source="HdJTnQoszHruhpzJ2h9A-38" target="HdJTnQoszHruhpzJ2h9A-24">
          <mxGeometry relative="1" as="geometry">
            <Array as="points">
              <mxPoint x="270" y="391" />
              <mxPoint x="270" y="544" />
            </Array>
          </mxGeometry>
        </mxCell>
        <mxCell id="HdJTnQoszHruhpzJ2h9A-80" value="Token var" style="edgeLabel;html=1;align=center;verticalAlign=middle;resizable=0;points=[];" vertex="1" connectable="0" parent="HdJTnQoszHruhpzJ2h9A-79">
          <mxGeometry x="-0.4635" y="-1" relative="1" as="geometry">
            <mxPoint as="offset" />
          </mxGeometry>
        </mxCell>
        <mxCell id="HdJTnQoszHruhpzJ2h9A-38" value="Token?" style="rhombus;whiteSpace=wrap;html=1;" vertex="1" parent="WIyWlLk6GJQsqaUBKTNV-1">
          <mxGeometry x="190" y="311" width="80" height="80" as="geometry" />
        </mxCell>
        <mxCell id="HdJTnQoszHruhpzJ2h9A-58" value="Log managment" style="swimlane;fontStyle=0;childLayout=stackLayout;horizontal=1;startSize=30;horizontalStack=0;resizeParent=1;resizeParentMax=0;resizeLast=0;collapsible=1;marginBottom=0;whiteSpace=wrap;html=1;" vertex="1" parent="WIyWlLk6GJQsqaUBKTNV-1">
          <mxGeometry x="560" y="191" width="140" height="120" as="geometry" />
        </mxCell>
        <mxCell id="HdJTnQoszHruhpzJ2h9A-59" value="SSO İşlemleri" style="text;strokeColor=none;fillColor=none;align=left;verticalAlign=middle;spacingLeft=4;spacingRight=4;overflow=hidden;points=[[0,0.5],[1,0.5]];portConstraint=eastwest;rotatable=0;whiteSpace=wrap;html=1;" vertex="1" parent="HdJTnQoszHruhpzJ2h9A-58">
          <mxGeometry y="30" width="140" height="30" as="geometry" />
        </mxCell>
        <mxCell id="HdJTnQoszHruhpzJ2h9A-60" value="User İşlemleri" style="text;strokeColor=none;fillColor=none;align=left;verticalAlign=middle;spacingLeft=4;spacingRight=4;overflow=hidden;points=[[0,0.5],[1,0.5]];portConstraint=eastwest;rotatable=0;whiteSpace=wrap;html=1;" vertex="1" parent="HdJTnQoszHruhpzJ2h9A-58">
          <mxGeometry y="60" width="140" height="30" as="geometry" />
        </mxCell>
        <mxCell id="HdJTnQoszHruhpzJ2h9A-61" value="Database İşlemleri" style="text;strokeColor=none;fillColor=none;align=left;verticalAlign=middle;spacingLeft=4;spacingRight=4;overflow=hidden;points=[[0,0.5],[1,0.5]];portConstraint=eastwest;rotatable=0;whiteSpace=wrap;html=1;" vertex="1" parent="HdJTnQoszHruhpzJ2h9A-58">
          <mxGeometry y="90" width="140" height="30" as="geometry" />
        </mxCell>
        <mxCell id="HdJTnQoszHruhpzJ2h9A-69" value="Function List" style="swimlane;fontStyle=0;childLayout=stackLayout;horizontal=1;startSize=30;horizontalStack=0;resizeParent=1;resizeParentMax=0;resizeLast=0;collapsible=1;marginBottom=0;whiteSpace=wrap;html=1;" vertex="1" parent="WIyWlLk6GJQsqaUBKTNV-1">
          <mxGeometry x="660" y="720" width="140" height="150" as="geometry">
            <mxRectangle x="660" y="720" width="110" height="30" as="alternateBounds" />
          </mxGeometry>
        </mxCell>
        <mxCell id="HdJTnQoszHruhpzJ2h9A-70" value="Permission Sorguları" style="text;strokeColor=none;fillColor=none;align=left;verticalAlign=middle;spacingLeft=4;spacingRight=4;overflow=hidden;points=[[0,0.5],[1,0.5]];portConstraint=eastwest;rotatable=0;whiteSpace=wrap;html=1;" vertex="1" parent="HdJTnQoszHruhpzJ2h9A-69">
          <mxGeometry y="30" width="140" height="30" as="geometry" />
        </mxCell>
        <mxCell id="HdJTnQoszHruhpzJ2h9A-71" value="Notification&amp;nbsp;" style="text;strokeColor=none;fillColor=none;align=left;verticalAlign=middle;spacingLeft=4;spacingRight=4;overflow=hidden;points=[[0,0.5],[1,0.5]];portConstraint=eastwest;rotatable=0;whiteSpace=wrap;html=1;" vertex="1" parent="HdJTnQoszHruhpzJ2h9A-69">
          <mxGeometry y="60" width="140" height="30" as="geometry" />
        </mxCell>
        <mxCell id="HdJTnQoszHruhpzJ2h9A-72" value="Senaryolar" style="text;strokeColor=none;fillColor=none;align=left;verticalAlign=middle;spacingLeft=4;spacingRight=4;overflow=hidden;points=[[0,0.5],[1,0.5]];portConstraint=eastwest;rotatable=0;whiteSpace=wrap;html=1;" vertex="1" parent="HdJTnQoszHruhpzJ2h9A-69">
          <mxGeometry y="90" width="140" height="30" as="geometry" />
        </mxCell>
        <mxCell id="HdJTnQoszHruhpzJ2h9A-102" value="Parametreler" style="text;strokeColor=none;fillColor=none;align=left;verticalAlign=middle;spacingLeft=4;spacingRight=4;overflow=hidden;points=[[0,0.5],[1,0.5]];portConstraint=eastwest;rotatable=0;whiteSpace=wrap;html=1;" vertex="1" parent="HdJTnQoszHruhpzJ2h9A-69">
          <mxGeometry y="120" width="140" height="30" as="geometry" />
        </mxCell>
        <mxCell id="HdJTnQoszHruhpzJ2h9A-81" value="Notification" style="swimlane;fontStyle=0;childLayout=stackLayout;horizontal=1;startSize=30;horizontalStack=0;resizeParent=1;resizeParentMax=0;resizeLast=0;collapsible=1;marginBottom=0;whiteSpace=wrap;html=1;" vertex="1" parent="WIyWlLk6GJQsqaUBKTNV-1">
          <mxGeometry x="560" y="370" width="140" height="120" as="geometry" />
        </mxCell>
        <mxCell id="HdJTnQoszHruhpzJ2h9A-82" value="Push Notification" style="text;strokeColor=none;fillColor=none;align=left;verticalAlign=middle;spacingLeft=4;spacingRight=4;overflow=hidden;points=[[0,0.5],[1,0.5]];portConstraint=eastwest;rotatable=0;whiteSpace=wrap;html=1;" vertex="1" parent="HdJTnQoszHruhpzJ2h9A-81">
          <mxGeometry y="30" width="140" height="30" as="geometry" />
        </mxCell>
        <mxCell id="HdJTnQoszHruhpzJ2h9A-83" value="Mail Notification" style="text;strokeColor=none;fillColor=none;align=left;verticalAlign=middle;spacingLeft=4;spacingRight=4;overflow=hidden;points=[[0,0.5],[1,0.5]];portConstraint=eastwest;rotatable=0;whiteSpace=wrap;html=1;" vertex="1" parent="HdJTnQoszHruhpzJ2h9A-81">
          <mxGeometry y="60" width="140" height="30" as="geometry" />
        </mxCell>
        <mxCell id="HdJTnQoszHruhpzJ2h9A-84" value="Slack Notification" style="text;strokeColor=none;fillColor=none;align=left;verticalAlign=middle;spacingLeft=4;spacingRight=4;overflow=hidden;points=[[0,0.5],[1,0.5]];portConstraint=eastwest;rotatable=0;whiteSpace=wrap;html=1;" vertex="1" parent="HdJTnQoszHruhpzJ2h9A-81">
          <mxGeometry y="90" width="140" height="30" as="geometry" />
        </mxCell>
        <mxCell id="HdJTnQoszHruhpzJ2h9A-104" value="CorpFlow" style="swimlane;fontStyle=1;childLayout=stackLayout;horizontal=1;startSize=30;horizontalStack=0;resizeParent=1;resizeParentMax=0;resizeLast=0;collapsible=1;marginBottom=0;whiteSpace=wrap;html=1;" vertex="1" parent="WIyWlLk6GJQsqaUBKTNV-1">
          <mxGeometry x="40" y="800" width="140" height="150" as="geometry" />
        </mxCell>
        <mxCell id="HdJTnQoszHruhpzJ2h9A-105" value="ID" style="text;strokeColor=none;fillColor=none;align=left;verticalAlign=middle;spacingLeft=4;spacingRight=4;overflow=hidden;points=[[0,0.5],[1,0.5]];portConstraint=eastwest;rotatable=0;whiteSpace=wrap;html=1;" vertex="1" parent="HdJTnQoszHruhpzJ2h9A-104">
          <mxGeometry y="30" width="140" height="30" as="geometry" />
        </mxCell>
        <mxCell id="HdJTnQoszHruhpzJ2h9A-106" value="CorpId" style="text;strokeColor=none;fillColor=none;align=left;verticalAlign=middle;spacingLeft=4;spacingRight=4;overflow=hidden;points=[[0,0.5],[1,0.5]];portConstraint=eastwest;rotatable=0;whiteSpace=wrap;html=1;" vertex="1" parent="HdJTnQoszHruhpzJ2h9A-104">
          <mxGeometry y="60" width="140" height="30" as="geometry" />
        </mxCell>
        <mxCell id="HdJTnQoszHruhpzJ2h9A-107" value="SceneId" style="text;strokeColor=none;fillColor=none;align=left;verticalAlign=middle;spacingLeft=4;spacingRight=4;overflow=hidden;points=[[0,0.5],[1,0.5]];portConstraint=eastwest;rotatable=0;whiteSpace=wrap;html=1;" vertex="1" parent="HdJTnQoszHruhpzJ2h9A-104">
          <mxGeometry y="90" width="140" height="30" as="geometry" />
        </mxCell>
        <mxCell id="HdJTnQoszHruhpzJ2h9A-108" value="MainSceneId" style="text;strokeColor=none;fillColor=none;align=left;verticalAlign=middle;spacingLeft=4;spacingRight=4;overflow=hidden;points=[[0,0.5],[1,0.5]];portConstraint=eastwest;rotatable=0;whiteSpace=wrap;html=1;fontStyle=0" vertex="1" parent="HdJTnQoszHruhpzJ2h9A-104">
          <mxGeometry y="120" width="140" height="30" as="geometry" />
        </mxCell>
        <mxCell id="HdJTnQoszHruhpzJ2h9A-109" value="EventType" style="swimlane;fontStyle=1;childLayout=stackLayout;horizontal=1;startSize=30;horizontalStack=0;resizeParent=1;resizeParentMax=0;resizeLast=0;collapsible=1;marginBottom=0;whiteSpace=wrap;html=1;" vertex="1" parent="WIyWlLk6GJQsqaUBKTNV-1">
          <mxGeometry x="200" y="800" width="140" height="150" as="geometry" />
        </mxCell>
        <mxCell id="HdJTnQoszHruhpzJ2h9A-110" value="ID" style="text;strokeColor=none;fillColor=none;align=left;verticalAlign=middle;spacingLeft=4;spacingRight=4;overflow=hidden;points=[[0,0.5],[1,0.5]];portConstraint=eastwest;rotatable=0;whiteSpace=wrap;html=1;" vertex="1" parent="HdJTnQoszHruhpzJ2h9A-109">
          <mxGeometry y="30" width="140" height="30" as="geometry" />
        </mxCell>
        <mxCell id="HdJTnQoszHruhpzJ2h9A-111" value="EventCode" style="text;strokeColor=none;fillColor=none;align=left;verticalAlign=middle;spacingLeft=4;spacingRight=4;overflow=hidden;points=[[0,0.5],[1,0.5]];portConstraint=eastwest;rotatable=0;whiteSpace=wrap;html=1;" vertex="1" parent="HdJTnQoszHruhpzJ2h9A-109">
          <mxGeometry y="60" width="140" height="30" as="geometry" />
        </mxCell>
        <mxCell id="HdJTnQoszHruhpzJ2h9A-112" value="EventName" style="text;strokeColor=none;fillColor=none;align=left;verticalAlign=middle;spacingLeft=4;spacingRight=4;overflow=hidden;points=[[0,0.5],[1,0.5]];portConstraint=eastwest;rotatable=0;whiteSpace=wrap;html=1;" vertex="1" parent="HdJTnQoszHruhpzJ2h9A-109">
          <mxGeometry y="90" width="140" height="30" as="geometry" />
        </mxCell>
        <mxCell id="HdJTnQoszHruhpzJ2h9A-113" value="CorpId" style="text;strokeColor=none;fillColor=none;align=left;verticalAlign=middle;spacingLeft=4;spacingRight=4;overflow=hidden;points=[[0,0.5],[1,0.5]];portConstraint=eastwest;rotatable=0;whiteSpace=wrap;html=1;fontStyle=0" vertex="1" parent="HdJTnQoszHruhpzJ2h9A-109">
          <mxGeometry y="120" width="140" height="30" as="geometry" />
        </mxCell>
        <mxCell id="HdJTnQoszHruhpzJ2h9A-114" value="Scenes" style="swimlane;fontStyle=1;childLayout=stackLayout;horizontal=1;startSize=30;horizontalStack=0;resizeParent=1;resizeParentMax=0;resizeLast=0;collapsible=1;marginBottom=0;whiteSpace=wrap;html=1;" vertex="1" parent="WIyWlLk6GJQsqaUBKTNV-1">
          <mxGeometry x="360" y="800" width="140" height="120" as="geometry" />
        </mxCell>
        <mxCell id="HdJTnQoszHruhpzJ2h9A-115" value="ID" style="text;strokeColor=none;fillColor=none;align=left;verticalAlign=middle;spacingLeft=4;spacingRight=4;overflow=hidden;points=[[0,0.5],[1,0.5]];portConstraint=eastwest;rotatable=0;whiteSpace=wrap;html=1;" vertex="1" parent="HdJTnQoszHruhpzJ2h9A-114">
          <mxGeometry y="30" width="140" height="30" as="geometry" />
        </mxCell>
        <mxCell id="HdJTnQoszHruhpzJ2h9A-117" value="EventName" style="text;strokeColor=none;fillColor=none;align=left;verticalAlign=middle;spacingLeft=4;spacingRight=4;overflow=hidden;points=[[0,0.5],[1,0.5]];portConstraint=eastwest;rotatable=0;whiteSpace=wrap;html=1;" vertex="1" parent="HdJTnQoszHruhpzJ2h9A-114">
          <mxGeometry y="60" width="140" height="30" as="geometry" />
        </mxCell>
        <mxCell id="HdJTnQoszHruhpzJ2h9A-118" value="CorpId" style="text;strokeColor=none;fillColor=none;align=left;verticalAlign=middle;spacingLeft=4;spacingRight=4;overflow=hidden;points=[[0,0.5],[1,0.5]];portConstraint=eastwest;rotatable=0;whiteSpace=wrap;html=1;fontStyle=0" vertex="1" parent="HdJTnQoszHruhpzJ2h9A-114">
          <mxGeometry y="90" width="140" height="30" as="geometry" />
        </mxCell>
        <mxCell id="HdJTnQoszHruhpzJ2h9A-122" style="edgeStyle=orthogonalEdgeStyle;rounded=0;orthogonalLoop=1;jettySize=auto;html=1;exitX=0.5;exitY=1;exitDx=0;exitDy=0;entryX=0.5;entryY=0;entryDx=0;entryDy=0;" edge="1" parent="WIyWlLk6GJQsqaUBKTNV-1" source="HdJTnQoszHruhpzJ2h9A-119" target="HdJTnQoszHruhpzJ2h9A-120">
          <mxGeometry relative="1" as="geometry" />
        </mxCell>
        <mxCell id="HdJTnQoszHruhpzJ2h9A-119" value="Yangın" style="ellipse;shape=doubleEllipse;whiteSpace=wrap;html=1;" vertex="1" parent="WIyWlLk6GJQsqaUBKTNV-1">
          <mxGeometry x="580" y="900" width="100" height="60" as="geometry" />
        </mxCell>
        <mxCell id="HdJTnQoszHruhpzJ2h9A-127" value="" style="edgeStyle=orthogonalEdgeStyle;rounded=0;orthogonalLoop=1;jettySize=auto;html=1;" edge="1" parent="WIyWlLk6GJQsqaUBKTNV-1" source="HdJTnQoszHruhpzJ2h9A-120" target="HdJTnQoszHruhpzJ2h9A-126">
          <mxGeometry relative="1" as="geometry" />
        </mxCell>
        <mxCell id="HdJTnQoszHruhpzJ2h9A-120" value="Yangın sorumlusu Push" style="shape=ext;double=1;rounded=0;whiteSpace=wrap;html=1;" vertex="1" parent="WIyWlLk6GJQsqaUBKTNV-1">
          <mxGeometry x="570" y="990" width="120" height="40" as="geometry" />
        </mxCell>
        <mxCell id="HdJTnQoszHruhpzJ2h9A-129" value="" style="edgeStyle=orthogonalEdgeStyle;rounded=0;orthogonalLoop=1;jettySize=auto;html=1;" edge="1" parent="WIyWlLk6GJQsqaUBKTNV-1" source="HdJTnQoszHruhpzJ2h9A-126" target="HdJTnQoszHruhpzJ2h9A-128">
          <mxGeometry relative="1" as="geometry" />
        </mxCell>
        <mxCell id="HdJTnQoszHruhpzJ2h9A-132" value="" style="edgeStyle=orthogonalEdgeStyle;rounded=0;orthogonalLoop=1;jettySize=auto;html=1;" edge="1" parent="WIyWlLk6GJQsqaUBKTNV-1" source="HdJTnQoszHruhpzJ2h9A-126" target="HdJTnQoszHruhpzJ2h9A-131">
          <mxGeometry relative="1" as="geometry" />
        </mxCell>
        <mxCell id="HdJTnQoszHruhpzJ2h9A-126" value="Kimyasal mı" style="rhombus;whiteSpace=wrap;html=1;rounded=0;" vertex="1" parent="WIyWlLk6GJQsqaUBKTNV-1">
          <mxGeometry x="590" y="1060" width="80" height="80" as="geometry" />
        </mxCell>
        <mxCell id="HdJTnQoszHruhpzJ2h9A-134" value="" style="edgeStyle=orthogonalEdgeStyle;rounded=0;orthogonalLoop=1;jettySize=auto;html=1;" edge="1" parent="WIyWlLk6GJQsqaUBKTNV-1" source="HdJTnQoszHruhpzJ2h9A-128" target="HdJTnQoszHruhpzJ2h9A-133">
          <mxGeometry relative="1" as="geometry" />
        </mxCell>
        <mxCell id="HdJTnQoszHruhpzJ2h9A-128" value="toplanma yerine git" style="whiteSpace=wrap;html=1;rounded=0;" vertex="1" parent="WIyWlLk6GJQsqaUBKTNV-1">
          <mxGeometry x="570" y="1180" width="120" height="60" as="geometry" />
        </mxCell>
        <mxCell id="HdJTnQoszHruhpzJ2h9A-131" value="Sığınağa git" style="whiteSpace=wrap;html=1;rounded=0;" vertex="1" parent="WIyWlLk6GJQsqaUBKTNV-1">
          <mxGeometry x="707" y="1060" width="120" height="60" as="geometry" />
        </mxCell>
        <mxCell id="HdJTnQoszHruhpzJ2h9A-136" value="" style="edgeStyle=orthogonalEdgeStyle;rounded=0;orthogonalLoop=1;jettySize=auto;html=1;" edge="1" parent="WIyWlLk6GJQsqaUBKTNV-1" source="HdJTnQoszHruhpzJ2h9A-133" target="HdJTnQoszHruhpzJ2h9A-135">
          <mxGeometry relative="1" as="geometry" />
        </mxCell>
        <mxCell id="HdJTnQoszHruhpzJ2h9A-133" value="yangın söndürme ekibine push ver" style="whiteSpace=wrap;html=1;rounded=0;" vertex="1" parent="WIyWlLk6GJQsqaUBKTNV-1">
          <mxGeometry x="570" y="1280" width="120" height="60" as="geometry" />
        </mxCell>
        <mxCell id="HdJTnQoszHruhpzJ2h9A-135" value="müdehale edildi mi" style="whiteSpace=wrap;html=1;rounded=0;" vertex="1" parent="WIyWlLk6GJQsqaUBKTNV-1">
          <mxGeometry x="570" y="1370" width="120" height="60" as="geometry" />
        </mxCell>
        <mxCell id="HdJTnQoszHruhpzJ2h9A-137" value="&lt;table border=&quot;1&quot; width=&quot;100%&quot; height=&quot;100%&quot; cellpadding=&quot;4&quot; style=&quot;width:100%;height:100%;border-collapse:collapse;&quot;&gt;&lt;tbody&gt;&lt;tr&gt;&lt;th align=&quot;center&quot;&gt;&lt;b&gt;Yangın&lt;/b&gt;&lt;/th&gt;&lt;/tr&gt;&lt;tr&gt;&lt;td align=&quot;center&quot;&gt;ID : 1&lt;br&gt;CorpId : 1&lt;br&gt;SceneId : 1 (Yangın)&lt;br&gt;MainSceneId : 0 (Null)&lt;/td&gt;&lt;/tr&gt;&lt;/tbody&gt;&lt;/table&gt;" style="text;html=1;whiteSpace=wrap;strokeColor=none;fillColor=none;overflow=fill;" vertex="1" parent="WIyWlLk6GJQsqaUBKTNV-1">
          <mxGeometry x="20" y="1030" width="120" height="180" as="geometry" />
        </mxCell>
        <mxCell id="HdJTnQoszHruhpzJ2h9A-138" value="&lt;table border=&quot;1&quot; width=&quot;100%&quot; height=&quot;100%&quot; cellpadding=&quot;4&quot; style=&quot;width:100%;height:100%;border-collapse:collapse;&quot;&gt;&lt;tbody&gt;&lt;tr&gt;&lt;th align=&quot;center&quot;&gt;&lt;b&gt;Yangın&lt;/b&gt;&lt;/th&gt;&lt;/tr&gt;&lt;tr&gt;&lt;td align=&quot;center&quot;&gt;ID : 2&lt;br&gt;CorpId : 1&lt;br&gt;SceneId : 2 (Yangın Sorumlusu Push)&lt;br&gt;MainSceneId : 1 (Yangın)&lt;/td&gt;&lt;/tr&gt;&lt;/tbody&gt;&lt;/table&gt;" style="text;html=1;whiteSpace=wrap;strokeColor=none;fillColor=none;overflow=fill;" vertex="1" parent="WIyWlLk6GJQsqaUBKTNV-1">
          <mxGeometry x="150" y="1030" width="120" height="180" as="geometry" />
        </mxCell>
        <mxCell id="HdJTnQoszHruhpzJ2h9A-143" value="&lt;table border=&quot;1&quot; width=&quot;100%&quot; height=&quot;100%&quot; cellpadding=&quot;4&quot; style=&quot;width:100%;height:100%;border-collapse:collapse;&quot;&gt;&lt;tbody&gt;&lt;tr&gt;&lt;th align=&quot;center&quot;&gt;&lt;b&gt;Yangın&lt;/b&gt;&lt;/th&gt;&lt;/tr&gt;&lt;tr&gt;&lt;td align=&quot;center&quot;&gt;ID : 3&lt;br&gt;CorpId : 1&lt;br&gt;SceneId : 3 (Kimyasal Mı)&lt;br&gt;MainSceneId : 2 (Yangın)&lt;/td&gt;&lt;/tr&gt;&lt;/tbody&gt;&lt;/table&gt;" style="text;html=1;whiteSpace=wrap;strokeColor=none;fillColor=none;overflow=fill;" vertex="1" parent="WIyWlLk6GJQsqaUBKTNV-1">
          <mxGeometry x="290" y="1030" width="120" height="180" as="geometry" />
        </mxCell>
        <mxCell id="HdJTnQoszHruhpzJ2h9A-144" value="&lt;table border=&quot;1&quot; width=&quot;100%&quot; height=&quot;100%&quot; cellpadding=&quot;4&quot; style=&quot;width:100%;height:100%;border-collapse:collapse;&quot;&gt;&lt;tbody&gt;&lt;tr&gt;&lt;th align=&quot;center&quot;&gt;&lt;b&gt;Yangın&lt;/b&gt;&lt;/th&gt;&lt;/tr&gt;&lt;tr&gt;&lt;td align=&quot;center&quot;&gt;ID : 3&lt;br&gt;CorpId : 1&lt;br&gt;SceneId : 4 (Sığınağa git)&lt;br&gt;MainSceneId : 2 (Yangın)&lt;/td&gt;&lt;/tr&gt;&lt;/tbody&gt;&lt;/table&gt;" style="text;html=1;whiteSpace=wrap;strokeColor=none;fillColor=none;overflow=fill;" vertex="1" parent="WIyWlLk6GJQsqaUBKTNV-1">
          <mxGeometry x="420" y="1030" width="120" height="180" as="geometry" />
        </mxCell>
      </root>
    </mxGraphModel>
  </diagram>
</mxfile>
